<?xml version="1.0" encoding="iso-8859-1"?>
<!-- Generator: Adobe Illustrator 18.0.0, SVG Export Plug-In . SVG Version: 6.00 Build 0)  -->
<!DOCTYPE svg PUBLIC "-//W3C//DTD SVG 1.1//EN" "http://www.w3.org/Graphics/SVG/1.1/DTD/svg11.dtd">
<svg xmlns="http://www.w3.org/2000/svg" xmlns:xlink="http://www.w3.org/1999/xlink" version="1.1" id="Capa_1" x="0px" y="0px" viewBox="0 0 60 60" style="enable-background:new 0 0 60 60;" xml:space="preserve" width="512px" height="512px">
<g>
	<polygon points="13.634,17 15.492,16.023 17.351,17 16.996,14.93 18.5,13.464 16.422,13.162 15.492,11.279 14.563,13.162    12.485,13.464 13.989,14.93  " fill="#FFFFFF"/>
	<polygon points="21.649,16.721 23.508,15.743 25.366,16.721 25.011,14.651 26.515,13.185 24.437,12.883 23.508,11 22.578,12.883    20.5,13.185 22.004,14.651  " fill="#FFFFFF"/>
	<polygon points="13.634,24 15.492,23.023 17.351,24 16.996,21.93 18.5,20.464 16.422,20.162 15.492,18.279 14.563,20.162    12.485,20.464 13.989,21.93  " fill="#FFFFFF"/>
	<polygon points="21.649,23.721 23.508,22.743 25.366,23.721 25.011,21.651 26.515,20.185 24.437,19.883 23.508,18 22.578,19.883    20.5,20.185 22.004,21.651  " fill="#FFFFFF"/>
	<path d="M50.5,12V8h-20H11.474C12.109,7.162,12.5,6.13,12.5,5c0-2.757-2.243-5-5-5s-5,2.243-5,5c0,1.627,0.793,3.061,2,3.974V52   H4.203C3.264,52,2.5,52.764,2.5,53.703V55H2.203C1.264,55,0.5,55.764,0.5,56.703V60h14v-3.297c0-0.939-0.764-1.703-1.703-1.703   H12.5v-1.297c0-0.939-0.764-1.703-1.703-1.703H10.5V40h32v4h0.586h2.828H59.5V12H50.5z M10.5,28h19h1h18v4h-38V28z M30.5,22h18v4   h-18V22z M50.5,26h7v4h-7V26z M50.5,24v-4h7v4H50.5z M48.5,20h-18v-4h18V20z M50.5,32h7v4h-7V32z M57.5,14v4h-7v-4H57.5z M48.5,10   v2v2h-18v-4H48.5z M28.5,26h-18V10h18V26z M7.5,2c1.654,0,3,1.346,3,3s-1.346,3-3,3s-3-1.346-3-3S5.846,2,7.5,2z M12.5,58h-10v-1   h1.703h6.594H12.5V58z M10.5,55h-6v-1h6V55z M8.5,52h-2V10h2v18v12V52z M10.5,38v-4h38v4h-6H10.5z M45.086,42H44.5v-2h2.586   L45.086,42z M47.914,42l2.187-2.187l0.399-0.399v-0.588V38h7v4H47.914z" fill="#FFFFFF"/>
</g>
<g>
</g>
<g>
</g>
<g>
</g>
<g>
</g>
<g>
</g>
<g>
</g>
<g>
</g>
<g>
</g>
<g>
</g>
<g>
</g>
<g>
</g>
<g>
</g>
<g>
</g>
<g>
</g>
<g>
</g>
</svg>
