<?xml version="1.0" encoding="iso-8859-1"?>
<!-- Generator: Adobe Illustrator 16.0.0, SVG Export Plug-In . SVG Version: 6.00 Build 0)  -->
<!DOCTYPE svg PUBLIC "-//W3C//DTD SVG 1.1//EN" "http://www.w3.org/Graphics/SVG/1.1/DTD/svg11.dtd">
<svg xmlns="http://www.w3.org/2000/svg" xmlns:xlink="http://www.w3.org/1999/xlink" version="1.1" id="Capa_1" x="0px" y="0px" width="512px" height="512px" viewBox="0 0 124.861 124.861" style="enable-background:new 0 0 124.861 124.861;" xml:space="preserve">
<g>
	<g>
		<circle cx="83.697" cy="14.014" r="14.014" fill="#FFFFFF"/>
		<path d="M112.355,40.685c-1.943-2.291-5.377-2.573-7.67-0.629c-2.559,2.172-7.52,2.82-12.061,1.58    c-3.686-1.007-6.385-3.056-7.229-5.482c-0.074-0.219-0.168-0.428-0.27-0.63c-0.944-2.976-3.182-5.521-5.641-7.123    c-0.566-0.501-1.244-0.891-2.013-1.125c-0.335-0.147-0.704-0.288-1.089-0.401c-1.439-0.425-3.141-0.603-3.141-0.603l-0.043-0.008    c-0.701-0.049-1.426-0.039-2.156,0.019c-6.805-0.27-14.404,1.622-21.039,5.394c-7.671,4.359-12.933,10.575-14.814,17.503    c-0.032,0.119-0.055,0.238-0.078,0.357c-0.563-0.168-1.198-0.048-1.656,0.384l-1.41,1.322l-5.728-6.109l-15.105,14.16    L30.392,79.75l15.106-14.162L39.77,59.48l1.41-1.322c0.621-0.583,0.704-1.521,0.238-2.203c1.995-0.367,3.708-1.833,4.274-3.921    c1.102-4.051,4.633-8.022,9.69-10.896c1.096-0.623,2.229-1.174,3.38-1.657l-7.52,23.538c-0.458,1.436-0.542,2.846-0.354,4.199    l-5.284,14.104L29.138,82.14c-3.548,0.179-6.279,3.194-6.103,6.741c0.17,3.439,3.012,6.111,6.416,6.111    c0.108,0,0.216-0.004,0.324-0.008l20.685-1.029c2.563-0.127,4.803-1.764,5.703-4.166l4.621-12.331    c0.554,0.151,1.116,0.27,1.686,0.355l8.435,12.171l-7.221,26.77c-0.926,3.429,1.104,6.957,4.534,7.882    c0.56,0.151,1.123,0.226,1.678,0.226c2.836,0,5.433-1.891,6.204-4.759l7.998-29.651c0.494-1.828,0.154-3.779-0.923-5.336    l-8.411-12.139c0.393-0.645,0.729-1.349,0.979-2.131l6.967-21.809c2.058,1.325,4.425,2.378,7.046,3.095    c2.473,0.676,5.001,1.004,7.468,1.004c5.566,0,10.833-1.668,14.503-4.782C114.017,46.41,114.299,42.977,112.355,40.685z     M40.205,57.117l-1.409,1.322l-5.772-6.157l1.41-1.321c0.113-0.107,0.292-0.101,0.398,0.012l0.205,0.22    c0.236,2.161,1.756,4.061,3.979,4.665c0.161,0.044,0.324,0.068,0.485,0.098l0.103,0.109l0.614,0.655    C40.326,56.833,40.321,57.012,40.205,57.117z" fill="#FFFFFF"/>
	</g>
</g>
<g>
</g>
<g>
</g>
<g>
</g>
<g>
</g>
<g>
</g>
<g>
</g>
<g>
</g>
<g>
</g>
<g>
</g>
<g>
</g>
<g>
</g>
<g>
</g>
<g>
</g>
<g>
</g>
<g>
</g>
</svg>
